<svg xmlns="http://www.w3.org/2000/svg" viewBox="0 0 800 520" role="img" aria-label="Fröhliches Mammut mit Partyhut">
<defs><linearGradient id="fur" x1="0" x2="1"><stop stop-color="#704a32"/><stop offset="1" stop-color="#a16c46"/></linearGradient></defs>
<g stroke="#172134" stroke-width="12" stroke-linejoin="round"><path fill="url(#fur)" d="M150 395c-55-80-52-232 65-285 110-50 300-31 388 58 49 50 57 152 2 227l-18 84h-55l-7-71H315l-8 71h-56l-14-82z"/><path fill="#a16c46" d="M536 193c105 5 152 77 120 164-24 66-99 98-164 57-57-37-48-180 44-221z"/><path fill="#fff8e9" d="M540 322c28 77 89 96 121 54 27-35 6-100-38-128l-21 25c27 28 29 69 10 80-17 10-44-14-53-48z"/><path fill="#fff8e9" d="M500 324c-10 74-55 107-96 83-33-20-35-80-3-117l24 20c-17 29-10 65 8 69 17 5 38-22 39-59z"/><circle fill="#172134" cx="583" cy="252" r="12"/><path fill="none" d="M552 293q28 25 55 0"/><path fill="#ff497b" d="M545 156l42-101 42 102z"/><path fill="#ffd35a" d="M560 119l27-64 27 65z"/><path fill="#172134" d="M226 414v67M314 414v67M495 414v67M570 414v67" stroke-linecap="round"/>
</g></svg>
